<svg width="512" height="512" viewBox="0 0 512 512" xmlns="http://www.w3.org/2000/svg">
  
  <rect width="512" height="512" rx="115" fill="#12161F"></rect>
  <g transform="translate(106,100) scale(3)">
    <path d="M47 60 C45 72 39 79 38 89 C37 94 43 96 46 91 C50 84 53 72 55 61 Z" fill="#5E8A31"></path>
    <path d="M50 59 C36 57 20 49 13 33 C12 30 14 26 18 26 C34 28 46 43 52 58 Z" fill="#8FBF44"></path>
    <path d="M52 57 C60 51 74 45 81 31 C83 28 81 24 78 25 C64 29 55 43 53 56 Z" fill="#9FCE57"></path>
    <path d="M49 57 C39 49 29 42 20 32" stroke="#C6E58C" stroke-width="2.6" fill="none" stroke-linecap="round"></path>
    <path d="M52 55 C61 47 69 41 77 33" stroke="#CBE892" stroke-width="2.6" fill="none" stroke-linecap="round"></path>
  </g>
</svg>